PathFileType	4	(X/Y/Z)	/Users/itak/Documents/Research/Walk-IL/dataset/trc/00461_00167.trc
DataRate	CameraRate	NumFrames	NumMarkers	Units	OrigDataRate	OrigDataStartFrame	OrigNumFrames
100.000000	100.000000	4	53	mm	100.000000	207	553
Frame#	Time	RPSI			LPSI			L3			STRN			T10			C7			CLAV			RBAK			LBAK			LSHO			LUPA			LAEL			LAOL			LWTS			LWPS			LFRA			LIFD			LHPS			LHTS			RSHO			RUPA			RAEL			RAOL			RWTS			RWPS			RFRA			RIFD			RHTS			RHPS			RBHD			LFHD			RFHD			LBHD			LHIP			RHIP			RASI			LASI			LKNE			LTHI			LANK			LTIP			LTOE			LMT1			LMT5			LHEE			RKNE			RTHI			RANK			RTIP			RTOE			RMT1			RMT5			RHEE			
		X1	Y1	Z1	X2	Y2	Z2	X3	Y3	Z3	X4	Y4	Z4	X5	Y5	Z5	X6	Y6	Z6	X7	Y7	Z7	X8	Y8	Z8	X9	Y9	Z9	X10	Y10	Z10	X11	Y11	Z11	X12	Y12	Z12	X13	Y13	Z13	X14	Y14	Z14	X15	Y15	Z15	X16	Y16	Z16	X17	Y17	Z17	X18	Y18	Z18	X19	Y19	Z19	X20	Y20	Z20	X21	Y21	Z21	X22	Y22	Z22	X23	Y23	Z23	X24	Y24	Z24	X25	Y25	Z25	X26	Y26	Z26	X27	Y27	Z27	X28	Y28	Z28	X29	Y29	Z29	X30	Y30	Z30	X31	Y31	Z31	X32	Y32	Z32	X33	Y33	Z33	X34	Y34	Z34	X35	Y35	Z35	X36	Y36	Z36	X37	Y37	Z37	X38	Y38	Z38	X39	Y39	Z39	X40	Y40	Z40	X41	Y41	Z41	X42	Y42	Z42	X43	Y43	Z43	X44	Y44	Z44	X45	Y45	Z45	X46	Y46	Z46	X47	Y47	Z47	X48	Y48	Z48	X49	Y49	Z49	X50	Y50	Z50	X51	Y51	Z51	X52	Y52	Z52	X53	Y53	Z53	

208	2.07	-953.4405517578125	933.394287109375	-576.26708984375	-989.0164794921875	933.646728515625	-713.8193359375	-957.7603759765625	1032.609741210938	-648.7208862304688	-685.27392578125	1226.38232421875	-724.5983276367188	-971.017578125	1156.99462890625	-654.7872314453125	-892.9625854492188	1423.00146484375	-656.1065673828125	-719.0982666015625	1340.2607421875	-716.592529296875	-935.0121459960938	1300.726928710938	-553.693359375	-949.9011840820312	1379.5048828125	-745.837890625	-869.91943359375	1402.904052734375	-849.86962890625	-911.0185546875	1287.282592773438	-943.3308715820312	-918.3048095703125	1072.00634765625	-982.7890625	-978.621337890625	1065.282348632812	-898.1116943359375	-861.3974609375	857.9038696289062	-963.0552978515625	-926.7788696289062	852.8692016601562	-1004.723999023438	-914.4679565429688	982.7935791015625	-998.3395385742188	-898.8306884765625	690.4439086914062	-958.5300903320312	-933.1198120117188	772.98828125	-1007.530883789062	-867.4511108398438	767.9639892578125	-975.915283203125	-793.09326171875	1387.685302734375	-516.0136108398438	-797.7945556640625	1324.969116210938	-440.2361145019531	-790.2833251953125	1039.831909179688	-384.2328491210938	-850.5892333984375	1025.451416015625	-411.37744140625	-709.1135864257812	833.113525390625	-447.7272033691406	-764.0118408203125	819.0130615234375	-379.7311096191406	-785.8983154296875	981.3729248046875	-375.8833923339844	-710.957763671875	677.1513061523438	-443.7310791015625	-691.7901000976562	735.488037109375	-437.5278625488281	-749.0320434570312	731.6156616210938	-385.8992309570312	-762.7947998046875	1616.752563476562	-584.7593383789062	-642.94580078125	1605.327880859375	-752.7739868164062	-631.4569091796875	1598.638061523438	-622.8833618164062	-793.1585693359375	1634.201171875	-758.8859252929688	-898.4337768554688	829.657470703125	-861.3255615234375	-780.9393920898438	846.3726196289062	-479.2765197753906	-713.0464477539062	897.5711669921875	-570.988525390625	-778.7473754882812	866.9712524414062	-818.5797119140625	-950.1260986328125	418.43212890625	-803.3960571289062	-897.75537109375	565.3965454101562	-837.6818237304688	-1216.080078125	81.43105316162109	-729.5304565429688	-1036.15478515625	285.2110290527344	-793.7860717773438	-990.128173828125	41.84879684448242	-661.3888549804688	-1058.443481445312	64.16593170166016	-638.7088012695312	-1072.996826171875	39.41408920288086	-747.525390625	-1246.606323242188	121.8993682861328	-666.5839233398438	-663.0375366210938	468.6850280761719	-565.6802978515625	-704.807373046875	717.9796142578125	-497.4228210449219	-657.7793579101562	40.63245391845703	-585.3238525390625	-637.4501342773438	326.5434875488281	-570.5990600585938	-467.5333557128906	49.71682739257812	-698.9306640625	-539.0327758789062	53.14564895629883	-712.2185668945312	-523.4566650390625	47.05412292480469	-606.0873413085938	-733.4115600585938	31.71052551269531	-610.8975219726562	
209	2.08	-943.6231689453125	935.3208618164062	-576.7091064453125	-979.4096069335938	935.5696411132812	-714.1881713867188	-948.2628784179688	1034.113159179688	-649.0279541015625	-676.334716796875	1228.517333984375	-723.927001953125	-962.001708984375	1158.316528320312	-654.8510131835938	-884.6784057617188	1424.493530273438	-655.59814453125	-710.5	1342.225463867188	-715.707275390625	-926.7687377929688	1301.921997070312	-553.5737915039062	-941.2859497070312	1381.143676757812	-745.5450439453125	-861.027099609375	1404.991333007812	-849.219482421875	-901.7405395507812	1289.553344726562	-942.9088745117188	-908.8390502929688	1074.290161132812	-982.2613525390625	-968.9329833984375	1067.298828125	-897.4501342773438	-851.320556640625	860.2386474609375	-962.8363647460938	-916.731689453125	855.104248046875	-1004.288879394531	-904.7474975585938	985.0638427734375	-997.9088134765625	-888.142822265625	692.6808471679688	-958.1724243164062	-922.8641357421875	775.0835571289062	-1007.070068359375	-857.0241088867188	770.26123046875	-975.6624145507812	-785.2131958007812	1389.183349609375	-515.3430786132812	-790.0402221679688	1326.407958984375	-439.6674194335938	-781.8659057617188	1041.02099609375	-384.4267272949219	-842.1091918945312	1026.407348632812	-411.6813659667969	-698.9454956054688	835.1787719726562	-448.7756042480469	-753.969482421875	820.3442993164062	-381.0632629394531	-777.0963745117188	982.4871826171875	-376.3796691894531	-699.6420288085938	679.1734619140625	-445.4648742675781	-680.9110107421875	737.6627807617188	-438.9641723632812	-738.3078002929688	733.112060546875	-387.5392456054688	-754.8604736328125	1618.285766601562	-583.80126953125	-634.24755859375	1606.91162109375	-751.320556640625	-623.343017578125	1600.219360351562	-621.3687133789062	-784.4508666992188	1635.752563476562	-758.0609741210938	-889.4144287109375	831.1712036132812	-861.8172607421875	-770.9052734375	847.8515014648438	-480.3542785644531	-703.3317260742188	899.2330322265625	-572.1942138671875	-769.6163330078125	868.8973388671875	-819.5223388671875	-939.9527587890625	419.3067016601562	-808.0673217773438	-887.569091796875	566.7166748046875	-840.8558959960938	-1213.216552734375	87.87480163574219	-731.7957763671875	-1029.106689453125	287.935546875	-798.0883178710938	-989.60400390625	41.58868026733398	-662.15869140625	-1056.5966796875	65.55227661132812	-640.19287109375	-1072.233764648438	39.00595092773438	-748.0078125	-1241.1025390625	130.3423309326172	-669.4327392578125	-654.6608276367188	469.8308715820312	-567.1055908203125	-694.9600830078125	719.885498046875	-499.5095520019531	-657.4991455078125	40.53894805908203	-585.1017456054688	-631.7198486328125	326.5581359863281	-571.5709228515625	-467.5122985839844	48.7255859375	-699.5905151367188	-539.0100708007812	53.1014404296875	-712.3294677734375	-523.2078247070312	47.04635620117188	-606.06640625	-733.303955078125	31.78736877441406	-610.359619140625	
210	2.09	-933.6997680664062	937.1676635742188	-577.0560302734375	-969.8533935546875	937.4755859375	-714.40234375	-938.72216796875	1035.677734375	-649.1190185546875	-667.409423828125	1230.676147460938	-723.2630615234375	-952.8765869140625	1159.624877929688	-654.7852783203125	-876.4105224609375	1425.982299804688	-655.0725708007812	-701.91064453125	1344.214233398438	-714.8028564453125	-918.4783935546875	1303.123413085938	-553.418701171875	-932.662841796875	1382.792846679688	-745.2474975585938	-852.0971069335938	1407.150756835938	-848.5305786132812	-892.3387451171875	1291.9736328125	-942.5413208007812	-899.2009887695312	1076.674194335938	-981.7853393554688	-959.1602172851562	1069.407836914062	-896.918701171875	-840.9785766601562	862.6553955078125	-962.5709228515625	-906.3251953125	857.4055786132812	-1003.902893066406	-894.7806396484375	987.4334716796875	-997.5181884765625	-877.1507568359375	695.0137939453125	-957.6321411132812	-912.2373657226562	777.20556640625	-1006.580322265625	-846.279296875	772.6358642578125	-975.2677612304688	-777.3284301757812	1390.754638671875	-514.6785888671875	-782.2767944335938	1327.964965820312	-439.07568359375	-773.4578857421875	1042.324096679688	-384.5388793945312	-833.6334838867188	1027.457763671875	-411.914794921875	-688.6910400390625	837.42236328125	-449.9068603515625	-743.7392578125	821.8150024414062	-382.4185180664062	-768.239501953125	983.7100219726562	-376.8561096191406	-688.1423950195312	681.37890625	-447.3106384277344	-669.8885498046875	740.011962890625	-440.5127563476562	-727.3598022460938	734.77197265625	-389.228271484375	-746.975341796875	1619.804809570312	-582.845947265625	-625.6046142578125	1608.498657226562	-749.8558349609375	-615.2775268554688	1601.81298828125	-619.8502197265625	-775.7969360351562	1637.265625	-757.2348022460938	-880.4269409179688	832.6859741210938	-862.2108764648438	-760.942626953125	849.0746459960938	-481.3284301757812	-693.5499877929688	900.62060546875	-573.3818359375	-760.54296875	870.9133911132812	-820.4457397460938	-928.7827758789062	420.0093688964844	-813.3292846679688	-876.6961059570312	567.9622192382812	-844.4681396484375	-1209.419067382812	94.51898193359375	-734.19091796875	-1021.198120117188	290.6588439941406	-802.8739013671875	-989.0928344726562	41.27273559570312	-662.9622192382812	-1054.47021484375	66.9632568359375	-641.7799682617188	-1071.377319335938	38.5552978515625	-748.5216064453125	-1234.504760742188	139.2713317871094	-672.6719970703125	-646.9517211914062	470.6024475097656	-568.3380737304688	-685.4526977539062	721.52294921875	-501.3671569824219	-657.3034057617188	40.44806289672852	-584.9144287109375	-626.4923706054688	326.3555908203125	-572.4385375976562	-467.5237731933594	48.09914016723633	-700.0753173828125	-538.9903564453125	53.16064453125	-712.3687744140625	-523.0372314453125	47.0274658203125	-605.96728515625	-733.2301025390625	31.84974098205566	-609.95556640625	
211	2.1	-923.698486328125	938.8422241210938	-577.2846069335938	-960.3980102539062	939.2364501953125	-714.4381713867188	-929.141357421875	1037.229125976562	-648.979248046875	-658.5226440429688	1232.778198242188	-722.629150390625	-943.6553344726562	1160.859252929688	-654.569091796875	-868.1741333007812	1427.40283203125	-654.5274658203125	-693.3424682617188	1346.158325195312	-713.900146484375	-910.1345825195312	1304.265991210938	-553.2127075195312	-924.0611572265625	1384.381225585938	-744.9296875	-843.1727905273438	1409.306762695312	-847.807373046875	-882.8570556640625	1294.454345703125	-942.22265625	-889.422607421875	1079.073852539062	-981.389404296875	-949.3462524414062	1071.520263671875	-896.5525512695312	-830.353759765625	865.0852661132812	-962.2860107421875	-895.5425415039062	859.6865234375	-1003.600158691406	-884.5874633789062	989.8264770507812	-997.19677734375	-865.8338623046875	697.363037109375	-956.9303588867188	-901.194091796875	779.2785034179688	-1006.087890625	-835.2052001953125	775.0242919921875	-974.7532958984375	-769.4346313476562	1392.332885742188	-514.0242919921875	-774.4902954101562	1329.569702148438	-438.4656677246094	-765.048583984375	1043.675170898438	-384.5552673339844	-825.1365356445312	1028.524658203125	-412.0733032226562	-678.37353515625	839.7698364257812	-451.1158142089844	-733.3220825195312	823.3621215820312	-383.7696838378906	-759.3237915039062	984.9793090820312	-377.2900390625	-676.4981079101562	683.7035522460938	-449.2654724121094	-658.7576293945312	742.4596557617188	-442.1774291992188	-716.2014770507812	736.5318603515625	-390.9497375488281	-739.1597900390625	1621.261474609375	-581.9025268554688	-617.0413818359375	1610.04345703125	-748.392822265625	-607.2814331054688	1603.373413085938	-618.3394775390625	-767.2194213867188	1638.692749023438	-756.4176025390625	-871.4896240234375	834.1373291015625	-862.5184936523438	-751.071044921875	849.968505859375	-482.1792907714844	-683.7329711914062	901.6488647460938	-574.5279541015625	-751.5512084960938	872.939453125	-821.3250732421875	-916.6195068359375	420.5307312011719	-819.1377563476562	-865.1672973632812	569.1043701171875	-848.5278930664062	-1204.381713867188	101.073112487793	-736.7041625976562	-1012.345031738281	293.3418884277344	-808.1193237304688	-988.5698852539062	40.88907623291016	-663.7932739257812	-1052.006225585938	68.41913604736328	-643.48974609375	-1070.372802734375	38.08522415161133	-749.0783081054688	-1226.754516601562	148.6080169677734	-676.3809814453125	-639.9696044921875	470.9381103515625	-569.441162109375	-676.35400390625	722.7559204101562	-502.9512023925781	-657.1820678710938	40.42191314697266	-584.8408813476562	-621.7556762695312	325.9187316894531	-573.3079833984375	-467.5200805664062	47.71318054199219	-700.4969482421875	-538.9447631835938	53.22113418579102	-712.4284057617188	-522.93212890625	47.01514053344727	-605.8694458007812	-733.1812133789062	31.93432998657227	-609.7465209960938	
